# xmcd CD database file
#
# Track frame offsets:
#	150
#	12687
#	25315
#	39164
#	52998
#	62708
#	76495
#	90798
#	101043
#	112933
#	121651
#	134842
#
# Disc length: 1925 seconds
#
# Revision: 0
# Processed by: cddbd v1.5.2PL0 Copyright (c) Steve Scherf et al.
# Submitted via: CDex 1.70beta2
#
DISCID=9207830c
DTITLE=Kepa Kettunen - Long Prairie River
DYEAR=2009
DGENRE=Country
TTITLE0=KGB
TTITLE1=A Postcard from Lahaina
TTITLE2=Matador
TTITLE3=Le Mirage
TTITLE4=Buffalo Riders
TTITLE5=Tales of an Old Minaret
TTITLE6=North Star
TTITLE7=Calumet
TTITLE8=Pony Express
TTITLE9=Teddy the Shoemaker
TTITLE10=Long Prairie River
TTITLE11=Can Can at the Dead Man's Saloon
EXTD=YEAR: 2009
EXTT0=
EXTT1=
EXTT2=
EXTT3=
EXTT4=
EXTT5=
EXTT6=
EXTT7=
EXTT8=
EXTT9=
EXTT10=
EXTT11=
PLAYORDER=
